<svg width="95" height="92" viewBox="0 0 95 92" fill="none" xmlns="http://www.w3.org/2000/svg">
<path fill-rule="evenodd" clip-rule="evenodd" d="M43.1615 10.1725C43.1603 10.1627 43.1597 10.1528 43.1597 10.1429C43.1597 8.08263 43.1597 3.29207 43.1597 0.857143C43.1597 -0.285714 51.1558 -0.285714 51.1558 0.857143C51.1558 1.24177 51.1558 1.68544 51.1558 2.16949C51.1574 2.16962 51.1589 2.16976 51.1605 2.16989C51.161 5.90032 51.1617 9.42829 51.1617 9.42829C51.1617 9.42829 51.1597 20.0063 51.1597 23.2032C51.1597 24.9765 53.1597 24.9765 53.1597 23.2032C53.1597 19.2826 53.1617 9.42829 53.1617 9.42829C53.1617 9.42829 53.1611 6.02651 53.1605 2.38837C74.332 5.1988 86.6491 22.9507 86.6491 45.4456C86.6491 63.4473 102.999 84.0414 88.1491 89C82.1597 91 72.1597 92 47.1597 92C22.1597 92 12.1597 91 6.14911 89C-8.51299 84.1213 7.64911 63.6575 7.64911 45.4456C7.64911 22.9426 19.9751 5.18604 41.1605 2.38535C41.1611 6.03501 41.1617 9.42829 41.1617 9.42829C41.1617 9.42829 41.1597 20.0063 41.1597 23.2032C41.1597 24.9765 43.1597 24.9765 43.1597 23.2032C43.1597 19.9342 43.1611 12.5401 43.1615 10.1725ZM65.1558 75.4401C65.1558 74.2973 61.1597 74.2973 61.1597 75.4401C61.1597 79.8751 61.1636 79.8486 61.1636 79.8486C61.1636 79.8486 61.1597 82.6656 61.1597 84.7259C61.1597 85.8687 65.1558 85.8687 65.1558 84.7259C65.1558 82.1993 65.1597 79.8486 65.1597 79.8486C65.1597 79.8486 65.1558 77.7527 65.1558 75.4401ZM57.1558 70.4401C57.1558 69.2973 53.1597 69.2973 53.1597 70.4401C53.1597 72.8751 53.1636 77.8486 53.1636 77.8486C53.1636 77.8486 53.1597 82.6656 53.1597 84.7259C53.1597 85.8687 57.1558 85.8687 57.1558 84.7259C57.1558 82.1993 57.1597 77.8486 57.1597 77.8486C57.1597 77.8486 57.1558 72.7527 57.1558 70.4401ZM49.1558 66.4401C49.1558 65.2973 45.1597 65.2973 45.1597 66.4401C45.1597 68.8751 45.1636 75.8486 45.1636 75.8486C45.1636 75.8486 45.1597 82.6656 45.1597 84.7259C45.1597 85.8687 49.1558 85.8687 49.1558 84.7259C49.1558 82.1993 49.1597 75.8486 49.1597 75.8486C49.1597 75.8486 49.1558 68.7527 49.1558 66.4401ZM41.1558 70.4401C41.1558 69.2973 37.1597 69.2973 37.1597 70.4401C37.1597 72.8751 37.1636 77.8486 37.1636 77.8486C37.1636 77.8486 37.1597 82.6656 37.1597 84.7259C37.1597 85.8687 41.1558 85.8687 41.1558 84.7259C41.1558 82.1993 41.1597 77.8486 41.1597 77.8486C41.1597 77.8486 41.1558 72.7527 41.1558 70.4401ZM33.1558 75.4401C33.1558 74.2973 29.1597 74.2973 29.1597 75.4401C29.1597 77.8751 29.1636 79.8486 29.1636 79.8486C29.1636 79.8486 29.1597 82.6656 29.1597 84.7259C29.1597 85.8687 33.1558 85.8687 33.1558 84.7259C33.1558 82.1993 33.1597 79.8486 33.1597 79.8486C33.1597 79.8486 33.1558 77.7527 33.1558 75.4401ZM22.6197 69.94C26.4857 69.94 29.6197 66.806 29.6197 62.94C29.6197 59.074 24.6197 50.94 24.6197 50.94C24.6197 50.94 15.6197 59.074 15.6197 62.94C15.6197 66.806 18.7537 69.94 22.6197 69.94ZM71.7709 42.6501C68.8181 42.1294 65.5662 44.599 62.16 43.9984C59.6255 43.5515 56.7319 39.9983 53.5899 39.4443C52.5798 39.2662 52.0594 42.2174 53.0695 42.3955C55.7994 42.8768 58.5637 46.4105 61.6391 46.9528C64.6559 47.4848 68.1895 45.0616 71.2505 45.6013C72.2606 45.7794 72.781 42.8282 71.7709 42.6501ZM22.5485 42.6501C21.5385 42.8282 22.0588 45.7794 23.0689 45.6013C26.13 45.0616 29.6635 47.4848 32.6804 46.9528C35.7558 46.4105 38.5201 42.8768 41.25 42.3955C42.26 42.2174 41.7397 39.2662 40.7296 39.4443C37.5875 39.9983 34.6939 43.5515 32.1594 43.9984C28.7532 44.599 25.5014 42.1294 22.5485 42.6501Z" fill="#00bc8c"/>
</svg>
